<svg xmlns="http://www.w3.org/2000/svg" xmlns:xlink="http://www.w3.org/1999/xlink" width="93" height="51.194" viewBox="0 0 93 51.194">
  <defs>
    <clipPath id="clip-path">
      <rect id="Rectangle_4" data-name="Rectangle 4" width="93" height="51.194" transform="translate(-3 -4)" fill="#1d1d1b"/>
    </clipPath>
  </defs>
  <g id="Group_102" data-name="Group 102" transform="translate(3 4)">
    <path id="Path_8" data-name="Path 8" d="M94.473,7.764V24.251H96.3V8.459ZM88.735,5.588V24.251h1.954V6.329ZM82.3,3.144V24.251h2.04V3.918ZM54.618,8.438,75.343.507l2.013.772V24.251H75.315V22.234L66.5,24.251H58.875l16.44-3.993V18.293L54.618,23.6V21.916l20.7-5.6V14.339l-20.7,5.893V18.548l20.7-6.184V10.393l-20.7,6.469V15.178l20.7-6.76V6.437L54.618,13.5V11.815l20.7-7.353V2.492l-20.7,7.631Z" transform="translate(-31.997 -0.297)" fill="#008c9d" fill-rule="evenodd"/>
    <g id="Group_7" data-name="Group 7">
      <g id="Group_6" data-name="Group 6" clip-path="url(#clip-path)">
        <path id="Path_9" data-name="Path 9" d="M16.519,87.108c-.015-2.785-.031-5.586-.046-8.387h.015c.82,2.8,1.656,5.6,2.476,8.387h1.949q1.277-4.178,2.538-8.387h.015c-.015,2.8-.031,5.6-.046,8.387h2.63V75.9h-3.9c-.727,2.368-1.439,4.751-2.166,7.118H19.97c-.727-2.368-1.454-4.75-2.182-7.118h-3.9v11.2Zm-11.095,0h2.77V82.822h3.791V80.346H8.194V78.4h4.039V75.9H5.424Zm-4.905,0H3.273V75.9H.519Z" transform="translate(-0.304 -44.468)" fill="#5c5c5b" fill-rule="evenodd"/>
        <path id="Path_10" data-name="Path 10" d="M128.484,82.7H123.5l2.507-6.066Zm-5.323.835h5.648l1.346,3.25h1.052l-4.658-11.2h-1.006l-4.75,11.2H121.8ZM113.1,86.78h.96v-5.6l5.447,5.6h1.3l-5.648-5.834,5.246-5.37H119.2l-5.137,5.23v-5.23h-.96Zm-9.067-2.213a3.416,3.416,0,0,0,3.5,2.445,3.2,3.2,0,0,0,3.4-3.172c0-2.321-1.9-2.77-3.11-3.156-1.423-.449-2.569-.836-2.569-2.321v-.031A2.166,2.166,0,0,1,107.64,76.2a2.251,2.251,0,0,1,2.2,1.563l.882-.325a2.992,2.992,0,0,0-3.048-2.089,3.087,3.087,0,0,0-3.373,3v.031c0,2.275,1.9,2.739,3.172,3.141,1.207.372,2.507.789,2.507,2.367a2.353,2.353,0,0,1-2.492,2.29,2.5,2.5,0,0,1-2.522-1.934ZM97.443,86.78h5.787v-.866H98.4V75.577h-.959Zm-12.58-5.6a4.793,4.793,0,1,1,4.8,4.983,4.733,4.733,0,0,1-4.8-4.983m-.959.016a5.757,5.757,0,1,0,5.756-5.849A5.632,5.632,0,0,0,83.9,81.194M76.91,76.444H79c1.455,0,2.816.588,2.816,2.275,0,1.655-1.346,2.244-2.77,2.244H76.91ZM75.95,86.78h.96V81.828H79.06c2.012,0,3.713-.866,3.713-3.126,0-2.352-1.81-3.126-3.853-3.126H75.95Z" transform="translate(-44.494 -44.14)" fill="#5c5c5b" fill-rule="evenodd"/>
      </g>
    </g>
  </g>
</svg>
